# xmcd
#
# Track frame offsets: 
#        182
#        24070
#        42070
#        52947
#        69085
#        91517
#        110657
#        134260
#        150017
#        171250
#
# Disc length: 2480 seconds
#
# Revision: 3
# Processed by: cddbd v1.5.2PL0 Copyright (c) Steve Scherf et al.
# Submitted via: ExactAudioCopy v0.99pb5
#
DISCID=6209ae0a
DTITLE=Tony Pabon Y Sus Estrellas - Tony Pabon y sus Estrellas
DYEAR=1970
DGENRE=Salsa
TTITLE0=Mentiroso
TTITLE1=El Samaritano
TTITLE2=Sunny
TTITLE3=Sueltala
TTITLE4=La Mentira (Yellow Days)
TTITLE5=No Te Critico
TTITLE6=Averigua
TTITLE7=Oh, Calcutta!
TTITLE8=Vamos Á Gozar
TTITLE9=Candido Bandito
EXTD=YEAR: 1970
EXTT0=
EXTT1=
EXTT2=
EXTT3=
EXTT4=
EXTT5=
EXTT6=
EXTT7=
EXTT8=
EXTT9=
PLAYORDER=
